<svg width="234" height="46" viewBox="0 0 234 46" fill="none" xmlns="http://www.w3.org/2000/svg">
<path d="M77.6815 45.616L42.6545 35.1273V14.2182L77.6815 0.383963C84.7571 -0.875792 92.8364 1.11807 92.8364 4.12451V41.8755C92.8364 44.8819 84.7571 46.8758 77.6815 45.616Z" fill="#FCFF65" fill-opacity="0.2"/>
<g clip-path="url(#clip0)">
<path d="M30.9954 36.7164H2.5189C1.54851 36.7164 0.761688 35.9142 0.761688 34.9248V15.2094C0.761688 14.22 1.54851 13.4177 2.5189 13.4177H30.9954C31.9658 13.4177 32.7526 14.22 32.7526 15.2094V34.9248C32.7526 35.9142 31.9658 36.7164 30.9954 36.7164Z" fill="#424A60"/>
<path d="M39.6642 36.8624L32.7526 33.6099V16.5242L39.6642 13.2717C41.0603 12.6147 42.6545 13.6546 42.6545 15.2226V34.9116C42.6545 36.4796 41.0603 37.5195 39.6642 36.8624Z" fill="#556080"/>
<path d="M0.761688 7.20471H25.1357C25.9736 7.20471 26.6591 7.90367 26.6591 8.75796V13.4177" stroke="#424A60" stroke-width="2" stroke-miterlimit="10" stroke-linecap="round"/>
</g>
<path d="M106.404 35V17.7207L106.246 18.793L100.393 35H99.1973L93.291 18.793L93.1504 17.7207V35H90.8828V9.79297H92.0605L99.707 30.4648L99.7773 31.3965L99.8477 30.4648L107.477 9.79297H108.672V35H106.404ZM128.254 29.1641C128.254 30.0195 128.09 30.8223 127.762 31.5723C127.445 32.3223 127.006 32.9785 126.443 33.541C125.881 34.1035 125.225 34.5488 124.475 34.877C123.725 35.1934 122.922 35.3516 122.066 35.3516H120.273C119.418 35.3516 118.609 35.1934 117.848 34.877C117.098 34.5488 116.441 34.1035 115.879 33.541C115.316 32.9785 114.871 32.3223 114.543 31.5723C114.227 30.8223 114.068 30.0195 114.068 29.1641V15.6289C114.068 14.7734 114.227 13.9707 114.543 13.2207C114.871 12.4707 115.316 11.8145 115.879 11.252C116.441 10.6895 117.098 10.25 117.848 9.93359C118.609 9.60547 119.418 9.44141 120.273 9.44141H122.066C122.922 9.44141 123.725 9.60547 124.475 9.93359C125.225 10.25 125.881 10.6895 126.443 11.252C127.006 11.8145 127.445 12.4707 127.762 13.2207C128.09 13.9707 128.254 14.7734 128.254 15.6289V29.1641ZM125.986 15.6289C125.986 15.0664 125.881 14.5449 125.67 14.0645C125.459 13.5723 125.172 13.1445 124.809 12.7812C124.445 12.418 124.018 12.1309 123.525 11.9199C123.045 11.709 122.523 11.6035 121.961 11.6035H120.379C119.816 11.6035 119.289 11.709 118.797 11.9199C118.316 12.1309 117.889 12.418 117.514 12.7812C117.15 13.1445 116.863 13.5723 116.652 14.0645C116.441 14.5449 116.336 15.0664 116.336 15.6289V29.1641C116.336 29.7266 116.441 30.2539 116.652 30.7461C116.863 31.2266 117.15 31.6543 117.514 32.0293C117.889 32.3926 118.316 32.6797 118.797 32.8906C119.289 33.1016 119.816 33.207 120.379 33.207H121.961C122.523 33.207 123.045 33.1016 123.525 32.8906C124.018 32.6797 124.445 32.3926 124.809 32.0293C125.172 31.6543 125.459 31.2266 125.67 30.7461C125.881 30.2539 125.986 29.7266 125.986 29.1641V15.6289ZM139.064 29.4629L139.135 30.3945L139.205 29.4629L144.795 9.79297H147.133L139.715 35H138.52L131.137 9.79297H133.492L139.064 29.4629ZM150.367 35V9.79297H152.635V35H150.367ZM158.418 35V9.79297H172.604V11.9551H160.686V21.3242H170.336V23.4863H160.686V32.8379H172.604V35H158.418Z" fill="white"/>
<path d="M180.15 11.9551V21.3242H189.801V23.4863H180.15V35H177.883V9.79297H192.068V11.9551H180.15ZM195.303 35V9.79297H197.57V32.8379H207.221V35H195.303ZM210.824 35V9.79297H213.092V35H210.824ZM229.896 35L224.711 24.5234L219.525 35H217.064L223.48 22.0449L217.434 9.79297H219.877L224.711 19.5488L229.527 9.79297H231.971L225.924 22.0449L232.34 35H229.896Z" fill="#31F5AF"/>
<defs>
<clipPath id="clip0">
<rect width="42.6545" height="43.4909" fill="white"/>
</clipPath>
</defs>
</svg>
